<?xml version="1.0" standalone="no"?>
<!DOCTYPE svg PUBLIC "-//W3C//DTD SVG 20010904//EN"
 "http://www.w3.org/TR/2001/REC-SVG-20010904/DTD/svg10.dtd">
<svg version="1.0" xmlns="http://www.w3.org/2000/svg"
 width="2043.000000pt" height="583.000000pt" viewBox="0 0 2043.000000 583.000000"
 preserveAspectRatio="xMidYMid meet">

<g transform="translate(0.000000,583.000000) scale(0.100000,-0.100000)"
fill="#000000" stroke="none">
<path d="M2270 5291 c-118 -31 -321 -150 -512 -299 -98 -76 -288 -245 -354
-313 -132 -138 -346 -445 -400 -576 -33 -81 -36 -93 -30 -153 10 -97 83 -240
183 -357 43 -50 102 -120 132 -155 135 -160 461 -468 621 -586 76 -56 261
-171 330 -205 57 -28 75 -32 150 -32 81 0 89 2 180 47 107 53 282 163 356 223
320 260 435 370 733 710 83 94 157 244 166 336 12 112 -39 217 -250 516 -124
176 -204 266 -349 392 -305 265 -527 412 -681 452 -86 23 -189 23 -275 0z
m-580 -1571 c11 -6 51 -52 89 -103 38 -51 94 -116 124 -144 63 -57 179 -136
217 -148 14 -4 34 -12 45 -19 11 -7 40 -18 65 -25 25 -7 53 -17 62 -22 10 -5
43 -9 75 -9 68 0 129 17 214 61 20 11 42 19 48 19 24 0 152 93 218 158 37 37
97 105 133 152 64 84 66 85 112 88 43 3 49 0 59 -22 13 -28 5 -42 -92 -161
-137 -168 -342 -321 -479 -357 -178 -48 -236 -48 -410 0 -147 40 -382 209
-489 352 -14 19 -28 37 -31 40 -24 24 -60 83 -60 99 0 12 11 26 28 34 34 18
48 20 72 7z"/>
<path d="M5319 4324 c-5 -7 -8 -97 -7 -210 l3 -199 430 -5 430 -5 0 -1370 0
-1370 235 0 235 0 8 1360 c5 748 12 1364 16 1368 4 4 198 9 432 10 l424 2 3
207 2 208 -22 4 c-13 3 -508 7 -1101 8 -792 2 -1081 0 -1088 -8z"/>
<path d="M19409 3973 c-61 -32 -80 -47 -111 -93 -67 -101 -68 -211 0 -303 50
-70 112 -97 218 -97 46 0 86 5 89 10 3 6 15 10 25 10 11 0 50 29 87 64 75 71
93 109 93 200 0 94 -41 159 -135 211 -53 30 -71 35 -127 35 -56 0 -76 -6 -139
-37z m244 -29 c79 -40 105 -84 108 -185 2 -82 -13 -123 -59 -159 l-26 -21 -8
20 c-4 12 -13 21 -20 21 -15 0 -78 60 -78 75 0 6 11 22 25 35 37 35 34 85 -7
127 -34 35 -63 41 -117 22 -17 -6 -31 -12 -31 -12 -1 -1 -3 -55 -7 -120 -4
-98 -3 -121 11 -142 9 -14 23 -25 31 -25 12 0 13 12 8 66 -4 45 -3 65 4 63 6
-2 45 -37 87 -76 l76 -73 -27 -17 c-39 -26 -160 -30 -206 -8 -43 20 -107 82
-107 104 0 9 -7 25 -15 35 -47 62 36 218 140 267 52 24 173 26 218 3z m-81
-121 c39 -35 5 -87 -54 -81 -45 4 -50 38 -11 73 33 29 41 30 65 8z"/>
<path d="M8090 3423 c-126 -20 -270 -68 -355 -118 -71 -41 -190 -151 -239
-219 -152 -213 -225 -478 -226 -819 0 -247 22 -377 100 -571 72 -182 163 -305
290 -393 151 -104 316 -161 525 -182 110 -11 273 3 376 32 94 27 229 90 311
145 87 59 198 158 198 177 0 15 -295 274 -313 275 -4 0 -35 -22 -70 -49 -136
-106 -266 -153 -427 -154 -202 -1 -372 90 -464 248 -31 53 -62 166 -68 247
l-3 53 690 2 c380 1 696 2 704 2 19 1 9 551 -12 631 -100 375 -364 619 -742
685 -81 14 -215 18 -275 8z m299 -460 c120 -46 211 -143 246 -261 10 -31 21
-70 26 -86 5 -16 9 -55 9 -88 l0 -58 -467 2 -468 3 3 64 c11 229 137 394 340
446 89 23 220 14 311 -22z"/>
<path d="M10315 3404 c-11 -2 -45 -9 -75 -15 -250 -48 -461 -204 -583 -430
-46 -84 -102 -236 -122 -330 -43 -203 -40 -605 6 -778 63 -240 181 -440 321
-544 200 -148 379 -202 658 -201 159 0 183 2 262 26 190 58 356 154 482 281
47 47 46 49 -45 127 -36 30 -100 85 -144 123 -43 37 -84 67 -91 67 -7 0 -37
-20 -67 -44 -107 -88 -217 -135 -359 -155 -115 -16 -259 13 -362 73 -63 37
-153 133 -180 191 -28 61 -54 162 -58 230 l-3 50 701 3 701 2 7 173 c11 303
-19 497 -107 672 -40 82 -74 129 -144 201 -176 182 -384 273 -648 280 -71 1
-139 1 -150 -2z m253 -443 c89 -23 145 -56 204 -119 82 -87 121 -191 122 -322
l1 -65 -452 -2 c-249 -1 -460 0 -469 4 -14 5 -15 16 -9 67 15 139 57 244 129
323 103 114 296 161 474 114z"/>
<path d="M11766 3383 c-3 -3 -6 -93 -6 -198 l0 -192 302 -6 c166 -4 402 -7
525 -7 154 0 223 -3 223 -11 0 -10 -29 -50 -116 -162 -22 -29 -85 -110 -139
-182 -54 -71 -135 -177 -179 -235 -79 -104 -107 -141 -241 -315 -38 -49 -98
-128 -134 -175 -36 -47 -106 -138 -155 -203 -50 -65 -106 -139 -123 -165 l-33
-47 0 -176 0 -176 831 -7 c482 -4 835 -4 841 2 4 4 7 100 6 213 l-3 204 -555
11 c-305 6 -556 11 -558 12 -2 1 16 26 40 55 25 28 98 121 164 206 65 84 139
180 164 212 25 31 78 99 117 151 40 51 104 134 143 183 133 170 157 201 334
431 55 71 102 131 106 134 3 3 17 22 33 42 l27 37 0 176 c0 132 -3 177 -12
179 -23 7 -1595 16 -1602 9z"/>
<path d="M14730 3381 c-55 -11 -161 -47 -215 -74 -44 -22 -146 -100 -184 -141
-14 -14 -28 -26 -33 -26 -4 0 -8 46 -8 103 0 67 -4 107 -12 115 -18 18 -421
17 -436 -1 -8 -9 -11 -291 -11 -922 -1 -501 -4 -991 -7 -1091 -4 -99 -4 -193
0 -208 l6 -26 223 2 222 3 6 715 c4 437 10 731 16 755 27 104 60 164 124 227
169 166 441 171 617 13 64 -58 117 -161 133 -260 7 -48 10 -287 7 -755 -1
-377 1 -691 5 -698 6 -9 62 -12 222 -12 215 0 215 0 219 23 3 12 7 339 10 727
4 574 8 715 20 757 15 53 50 122 89 174 28 39 138 111 197 130 59 18 243 19
290 0 164 -63 245 -156 285 -328 14 -59 16 -162 14 -770 0 -386 2 -706 6 -712
4 -7 76 -11 214 -11 167 0 211 3 220 14 9 11 11 219 9 838 l-4 823 -23 80
c-72 252 -257 434 -516 510 -77 22 -109 26 -220 26 -277 -1 -437 -61 -652
-246 l-41 -36 -75 68 c-184 167 -294 213 -532 218 -77 2 -160 0 -185 -4z"/>
<path d="M18315 3369 c-227 -24 -406 -108 -551 -260 -206 -217 -263 -410 -264
-897 0 -350 24 -499 108 -667 60 -121 205 -281 303 -334 126 -68 152 -81 206
-100 52 -18 125 -30 261 -45 58 -6 231 11 312 30 69 17 222 89 280 132 74 55
185 170 230 238 97 148 131 281 151 598 17 261 -9 594 -57 734 -49 146 -183
315 -336 424 -96 69 -148 94 -248 118 -65 16 -274 42 -304 39 -6 -1 -47 -5
-91 -10z m262 -471 c173 -55 276 -181 312 -382 14 -77 14 -490 0 -575 -23
-137 -64 -224 -140 -298 -213 -202 -606 -143 -729 111 -53 108 -62 162 -67
393 -8 319 14 456 92 577 37 57 59 79 125 124 106 70 278 92 407 50z"/>
<path d="M1152 3340 c-26 -24 -26 -29 -8 -123 8 -40 20 -103 26 -142 12 -69
32 -155 109 -475 47 -195 149 -484 232 -663 69 -146 79 -164 165 -302 56 -90
65 -112 94 -230 56 -235 93 -359 137 -458 54 -121 180 -366 202 -391 22 -26
74 -50 160 -76 88 -27 151 -23 256 15 84 31 106 45 138 87 34 45 176 325 214
423 26 66 85 276 133 471 5 22 41 88 79 146 130 196 241 426 353 733 45 123
172 599 219 817 26 124 21 152 -30 163 -36 8 -70 -18 -162 -120 -182 -202
-425 -403 -656 -541 -18 -10 -78 -47 -135 -81 -116 -70 -267 -143 -294 -143
-38 0 -214 99 -403 225 -106 72 -204 137 -216 145 -13 9 -67 56 -120 105 -53
50 -105 95 -114 100 -45 26 -116 94 -195 188 -80 96 -133 147 -154 147 -4 0
-18 -9 -30 -20z"/>
</g>
</svg>
